<svg xmlns="http://www.w3.org/2000/svg" xmlns:xlink="http://www.w3.org/1999/xlink" width="31.78" height="31.78" viewBox="0 0 31.78 31.78">
  <defs>
    <linearGradient id="linear-gradient" x1="0.5" x2="0.5" y2="1" gradientUnits="objectBoundingBox">
      <stop offset="0" stop-color="#61e1cb"/>
      <stop offset="1" stop-color="#00e16f"/>
    </linearGradient>
  </defs>
  <g id="Group_1125" data-name="Group 1125" transform="translate(-416.11 -517.22)">
    <path id="check" d="M18.89,33.78a15.1,15.1,0,0,1-5.881-1.135,14.411,14.411,0,0,1-7.873-7.873A15.1,15.1,0,0,1,4,18.89a15.006,15.006,0,0,1,1.135-5.844A14.532,14.532,0,0,1,8.281,8.318,14.845,14.845,0,0,1,18.89,4,14.771,14.771,0,0,1,33.78,18.89,14.845,14.845,0,0,1,29.462,29.5a14.532,14.532,0,0,1-4.728,3.145A15.006,15.006,0,0,1,18.89,33.78Z" transform="translate(413.11 514.22)" stroke="#fff" stroke-width="2" fill="url(#linear-gradient)"/>
    <path id="check-2" data-name="check" d="M19.108,25.688,15.46,22.04a1.168,1.168,0,0,0-1.638,0,1.2,1.2,0,0,0-.372.875,1.136,1.136,0,0,0,.335.838l4.541,4.541a1.175,1.175,0,0,0,1.563,0l8.934-8.934a1.114,1.114,0,0,0,.335-.819,1.177,1.177,0,0,0-.372-.856,1.136,1.136,0,0,0-.838-.335,1.2,1.2,0,0,0-.875.372Z" transform="translate(410.696 510.809)" fill="#fff" stroke="#fff" stroke-width="0.4"/>
  </g>
</svg>
