<svg xmlns="http://www.w3.org/2000/svg" xmlns:xlink="http://www.w3.org/1999/xlink" width="32.743" height="25.308" viewBox="0 0 32.743 25.308">
  <defs>
    <linearGradient id="linear-gradient" x1="0.5" x2="0.5" y2="1" gradientUnits="objectBoundingBox">
      <stop offset="0" stop-color="#61e1cb"/>
      <stop offset="1" stop-color="#00e16f"/>
    </linearGradient>
  </defs>
  <g id="ico-adobe" transform="translate(-19.61 -21.743)">
    <path id="Icon_simple-adobecreativecloud_-_Outline" data-name="Icon simple-adobecreativecloud - Outline" d="M19.378,28.308H8.708l-.136-.025-.066-.013a10.254,10.254,0,0,1-3.462-.862,10.817,10.817,0,0,1-5.435-5.25A10.516,10.516,0,0,1-1.4,18.734l-.1-.833V16.708l.025-.136q0-.027.01-.053A10.517,10.517,0,0,1-.8,13.458,10.852,10.852,0,0,1,4.551,7.474,10.4,10.4,0,0,1,8.792,6.358a11.431,11.431,0,0,1,1.491.028A12.486,12.486,0,0,1,13.275,4.3a11.989,11.989,0,0,1,4-1.2c.244-.028.483-.053.713-.076L18.238,3H19.32l.112.017.071.011.044.007.013,0c.136.016.273.031.409.045.317.034.644.068.986.126a11.815,11.815,0,0,1,4.356,1.679,12.5,12.5,0,0,1,4.666,5.22,12.324,12.324,0,0,1,1.168,4.031c.022.2.042.392.062.582q.014.14.029.28l.008.078v1.209l-.033.179L31.2,16.5c-.013.119-.026.24-.038.361-.033.32-.067.651-.124,1a12.178,12.178,0,0,1-1.657,4.434,12.443,12.443,0,0,1-5.128,4.725,11.9,11.9,0,0,1-3.981,1.193c-.2.024-.4.046-.606.068Z" transform="translate(21.11 18.743)" fill="#fff"/>
    <path id="Icon_simple-adobecreativecloud" data-name="Icon simple-adobecreativecloud" d="M29.743,15.157v1c-.01.055-.021.108-.027.161-.05.434-.083.869-.154,1.3a10.736,10.736,0,0,1-1.457,3.9,10.965,10.965,0,0,1-4.517,4.164A10.438,10.438,0,0,1,20.1,26.717c-.269.032-.539.061-.808.09H8.846c-.053-.01-.105-.025-.159-.03a8.789,8.789,0,0,1-3.034-.741A9.323,9.323,0,0,1,.956,21.5a9.044,9.044,0,0,1-.868-2.937L0,17.813v-.967a1.413,1.413,0,0,0,.029-.161,9.03,9.03,0,0,1,.571-2.7A9.362,9.362,0,0,1,5.232,8.81a8.956,8.956,0,0,1,3.629-.954,9.912,9.912,0,0,1,1.863.088.233.233,0,0,0,.176-.058,11.027,11.027,0,0,1,3.046-2.243,10.526,10.526,0,0,1,3.5-1.051c.29-.033.579-.062.868-.092h.892c.057.009.116.02.174.026.442.053.886.087,1.324.161a10.373,10.373,0,0,1,3.808,1.47,11.017,11.017,0,0,1,4.113,4.6,10.856,10.856,0,0,1,1.029,3.547c.032.284.059.568.089.851M13.112,8.712c.019.025.024.036.031.04A11.936,11.936,0,0,1,14.89,9.827a.184.184,0,0,0,.164-.012,6.789,6.789,0,0,1,9.13,1.6,6.683,6.683,0,0,1,1.346,5.379,6.959,6.959,0,0,1-1.648,3.546,6.588,6.588,0,0,1-6.095,2.272,6.4,6.4,0,0,1-3.825-1.938c-1.361-1.4-2.731-2.786-4.1-4.18a1.1,1.1,0,0,0-.646-.368,1.024,1.024,0,0,0-1.071.595.972.972,0,0,0,.229,1.175c1.521,1.519,3.029,3.051,4.548,4.573a7.467,7.467,0,0,0,.835.721,7.912,7.912,0,0,0,3.718,1.455A8.822,8.822,0,0,0,25.6,21.42a8.939,8.939,0,0,0,1.953-4.548,9.063,9.063,0,0,0-.081-2.925,8.757,8.757,0,0,0-2.008-4.185A8.663,8.663,0,0,0,17.942,6.68a8.259,8.259,0,0,0-3.273.979,8.628,8.628,0,0,0-1.555,1.053m-.735,15.976-.124-.116c-.621-.6-1.247-1.19-1.861-1.8a.5.5,0,0,0-.4-.17,7.428,7.428,0,0,1-1.859-.124,5.327,5.327,0,0,1-3.7-7.039A5.243,5.243,0,0,1,10.2,12.117,5.016,5.016,0,0,1,13.02,13.6c.954,1,1.936,1.973,2.9,2.963a.858.858,0,0,0,.775.285.976.976,0,0,0,.846-.639.957.957,0,0,0-.214-1.046c-1.011-1.041-2-2.109-3.051-3.107a6.826,6.826,0,0,0-7.109-1.688A7.353,7.353,0,0,0,9.363,24.7h2.849c.047,0,.094,0,.166-.009" transform="translate(21.11 18.743)" fill="url(#linear-gradient)"/>
  </g>
</svg>
