<svg id="icon_check-error" xmlns="http://www.w3.org/2000/svg" width="16" height="16" viewBox="0 0 16 16">
  <path id="warning" d="M12.06,12.94a.581.581,0,0,0,.6-.6V8.46a.544.544,0,0,0-.18-.41.592.592,0,0,0-.42-.17.581.581,0,0,0-.6.6v3.88a.544.544,0,0,0,.18.41A.592.592,0,0,0,12.06,12.94ZM12,16a.649.649,0,1,0-.47-.19A.638.638,0,0,0,12,16Zm0,4a8.114,8.114,0,0,1-3.16-.61,7.743,7.743,0,0,1-4.23-4.23A8.114,8.114,0,0,1,4,12a8.062,8.062,0,0,1,.61-3.14A7.808,7.808,0,0,1,6.3,6.32,7.976,7.976,0,0,1,12,4a7.936,7.936,0,0,1,8,8,7.976,7.976,0,0,1-2.32,5.7,7.808,7.808,0,0,1-2.54,1.69A8.062,8.062,0,0,1,12,20Z" transform="translate(-4 -4)" fill="#ff9c24"/>
</svg>
