<svg id="icon_check-error" xmlns="http://www.w3.org/2000/svg" xmlns:xlink="http://www.w3.org/1999/xlink" width="16" height="16" viewBox="0 0 16 16">
  <defs>
    <linearGradient id="linear-gradient" x1="0.5" x2="0.5" y2="1" gradientUnits="objectBoundingBox">
      <stop offset="0" stop-color="#61e1cb"/>
      <stop offset="1" stop-color="#00e16f"/>
    </linearGradient>
  </defs>
  <path id="check" d="M10.82,13.82,8.86,11.86a.628.628,0,0,0-.88,0,.643.643,0,0,0-.2.47.611.611,0,0,0,.18.45l2.44,2.44a.631.631,0,0,0,.84,0l4.8-4.8a.6.6,0,0,0,.18-.44.632.632,0,0,0-.2-.46.611.611,0,0,0-.45-.18.643.643,0,0,0-.47.2ZM12,20a8.114,8.114,0,0,1-3.16-.61,7.743,7.743,0,0,1-4.23-4.23A8.114,8.114,0,0,1,4,12a8.062,8.062,0,0,1,.61-3.14A7.808,7.808,0,0,1,6.3,6.32,7.976,7.976,0,0,1,12,4a7.936,7.936,0,0,1,8,8,7.976,7.976,0,0,1-2.32,5.7,7.808,7.808,0,0,1-2.54,1.69A8.062,8.062,0,0,1,12,20Z" transform="translate(-4 -4)" fill="url(#linear-gradient)"/>
</svg>
