<svg xmlns="http://www.w3.org/2000/svg" xmlns:xlink="http://www.w3.org/1999/xlink" width="107.791" height="46.172" viewBox="0 0 107.791 46.172">
  <defs>
    <clipPath id="clip-path">
      <rect id="Rectangle_118" data-name="Rectangle 118" width="107.791" height="46.172" fill="none"/>
    </clipPath>
  </defs>
  <g id="templet" transform="translate(76.463 32.753)">
    <g id="Group_1091" data-name="Group 1091" transform="translate(-76.463 -32.753)" clip-path="url(#clip-path)">
      <path id="Path_1617" data-name="Path 1617" d="M64.745,13.026a1.129,1.129,0,0,0-.452-.828.677.677,0,0,0-.828-.075l-2.108,1.355a5.344,5.344,0,0,0-1.505-1.731,2.936,2.936,0,0,0-1.807-.6q-1.957,0-3.688,2.484A25.819,25.819,0,0,0,51.2,20.4q.075-.452.753-6.172a.452.452,0,0,0-.3-.527,2.635,2.635,0,0,0-1.957-.075,1.986,1.986,0,0,0-1.656,1.43q-.677,4.667-1.129,9.334a28.829,28.829,0,0,1-1.2,3.538q-1.43,3.538-2.559,3.538t-.075-5.8q1.355-5.645.979-8.431t-2.71-2.785q-2.635,0-5.344,6.022a15.581,15.581,0,0,0-.151-5.947,2.484,2.484,0,0,0-2.635-1.882,3.9,3.9,0,0,0-3.011,1.957A18.593,18.593,0,0,0,27.711,19.8q.075-.828.753-5.119a.6.6,0,0,0-.3-.6,2.409,2.409,0,0,0-1.882-.075A1.957,1.957,0,0,0,24.7,15.51q-.6,3.387-.979,6.473a22.657,22.657,0,0,1-2.183,5.645q-1.957,3.538-4.14,3.538a1.807,1.807,0,0,1-1.43-1.054,7.377,7.377,0,0,1-.677-3.086,9.409,9.409,0,0,0,3.688-2.635A11.818,11.818,0,0,0,21.388,20.1a12.8,12.8,0,0,0,.677-4.441,5.043,5.043,0,0,0-.979-2.86,2.785,2.785,0,0,0-2.258-1.054q-2.258,0-4.441,2.785a16.961,16.961,0,0,0-3.011,7.753,16.71,16.71,0,0,0-.151,3.613l-.151.376c-1.355,3.688-2.409,4.441-3.011,4.441s-1.355-1.43-1.43-4.14a72.637,72.637,0,0,1,.6-10.915V13.7a13.549,13.549,0,0,0,3.463-.3,1.957,1.957,0,0,0,1.355-1.28A4.215,4.215,0,0,0,12.2,9.489c-.226-.753-.6-.828-.9-.753l-3.463.753Q8.065,7.8,9.194,1.133A.677.677,0,0,0,8.817.381,3.011,3.011,0,0,0,6.484.155c-1.2.226-1.957.828-2.108,1.656A61.724,61.724,0,0,0,2.871,9.94H.914a.828.828,0,0,0-.753.6,1.581,1.581,0,0,0,0,1.2,1.43,1.43,0,0,0,1.054.9l1.2.3-.3,3.086a44.713,44.713,0,0,0,0,10.087,14.176,14.176,0,0,0,1.807,5.8,3.688,3.688,0,0,0,3.161,1.957,3.989,3.989,0,0,0,2.936-1.505,11.818,11.818,0,0,0,1.882-2.86,7.527,7.527,0,0,0,1.656,2.71,4.366,4.366,0,0,0,3.237,1.43q3.312,0,5.645-3.764a16.635,16.635,0,0,0,.979-1.882,43.885,43.885,0,0,0,.151,4.592,1.054,1.054,0,0,0,.677.9,2.86,2.86,0,0,0,1.43.226,1.957,1.957,0,0,0,1.129-.376l.151-.151h.075q.075-.3.6-4.215a51.789,51.789,0,0,1,1.28-6.323A28.83,28.83,0,0,1,30.8,17.392q1.054-2.108,1.882-2.108t.677.9a10.989,10.989,0,0,1-.151,2.71q-.226,1.807-.6,3.613l-.9,4.516q-.527,2.635-.753,4.516a.753.753,0,0,0,.3.753,1.731,1.731,0,0,0,.9.376h.979a2.409,2.409,0,0,0,.979-.226.753.753,0,0,0,.452-.6l.3-1.656a44.939,44.939,0,0,1,1.581-5.721A40.5,40.5,0,0,1,38.625,19.2q1.054-2.183,1.656-2.183t.452.9A72.636,72.636,0,0,1,39.6,25.371q-.9,4.441-.075,6.775T42.539,34.1q2.333-.376,4.14-4.065v.753A113.135,113.135,0,0,0,46.6,45.168a1.059,1.059,0,0,0,.9.9,3.162,3.162,0,0,0,1.656.075q.828-.226.828-.677-.151-6.925.3-13.4A58.336,58.336,0,0,1,52.1,23.414a35.228,35.228,0,0,1,2.71-7.076q1.505-2.785,2.71-2.785t1.28,1.882a28.378,28.378,0,0,0-5.495,7.9,19.345,19.345,0,0,0-1.43,4.065,9.936,9.936,0,0,0-.226,3.764A2.71,2.71,0,0,0,53,33.425a3.312,3.312,0,0,0,1.355.3,4.215,4.215,0,0,0,1.581-.3,7.076,7.076,0,0,0,1.581-.9A8.732,8.732,0,0,0,59.1,31.017a13.174,13.174,0,0,0,1.43-2.032,15.883,15.883,0,0,0,1.2-2.559,20.174,20.174,0,0,0,.828-3.237,16.485,16.485,0,0,0-.376-7.828l2.333-1.505a.9.9,0,0,0,.3-.753M15.592,21.984A24.539,24.539,0,0,1,17.1,16.037q.979-2.484,2.258-2.484t.753.828a6.473,6.473,0,0,1,.151,2.258,13.926,13.926,0,0,1-.6,3.086,11.065,11.065,0,0,1-1.807,3.312,7.979,7.979,0,0,1-2.635,2.183,32.216,32.216,0,0,1,.376-3.312m42.68,1.43a24.54,24.54,0,0,1-1.28,4.592,10.162,10.162,0,0,1-1.656,3.011q-.828.979-1.505.677t-.376-1.581a13.323,13.323,0,0,1,.6-2.86,24.838,24.838,0,0,1,1.28-3.237A29.507,29.507,0,0,1,58.8,18.3a39.14,39.14,0,0,1-.6,5.043" transform="translate(-0.01 -0.004)" fill="#fff"/>
      <path id="Path_1618" data-name="Path 1618" d="M121.707,18.516a1.054,1.054,0,0,0-.677-.151q-.376.075-.376.3a43.057,43.057,0,0,1-2.183,8.656q-1.505,3.989-2.785,3.989t-1.43-3.764a63.3,63.3,0,0,1,.527-9.56V16.182a11.893,11.893,0,0,0,3.086-.226,1.505,1.505,0,0,0,.979-1.054A3.538,3.538,0,0,0,119,12.72q-.226-.677-.6-.6l-3.237.677q.151-1.28,1.2-7.527a.452.452,0,0,0-.3-.527A2.484,2.484,0,0,0,114.1,4.59a2.032,2.032,0,0,0-1.731,1.355,53.747,53.747,0,0,0-1.28,7.226h-1.807q-.376,0-.527.452a1.28,1.28,0,0,0,0,.979,1.129,1.129,0,0,0,.828.677l1.2.3-.226,2.86v.527a25.517,25.517,0,0,1-2.785,8.732q-1.957,3.538-4.14,3.538a1.807,1.807,0,0,1-1.656-1.129,7.377,7.377,0,0,1-.677-3.086A9.409,9.409,0,0,0,105,24.387a11.818,11.818,0,0,0,2.409-4.291,12.872,12.872,0,0,0,.677-4.441,5.043,5.043,0,0,0-.979-2.936,2.785,2.785,0,0,0-2.258-1.054q-2.258,0-4.441,2.785A16.411,16.411,0,0,0,97.469,22.2a14.7,14.7,0,0,0-.151,1.731,25.968,25.968,0,0,1-1.28,3.764q-1.581,3.538-3.387,3.538t-1.807-1.505a12.194,12.194,0,0,1-.979-4.14,39.971,39.971,0,0,0,3.839-6.775,44.11,44.11,0,0,0,2.785-7.979,23.184,23.184,0,0,0,.677-5.42,7.678,7.678,0,0,0-.828-3.764A2.484,2.484,0,0,0,94.082.3a3.463,3.463,0,0,0-2.409,1.28,14.453,14.453,0,0,0-2.409,3.613,32.216,32.216,0,0,0-2.108,5.8,51.561,51.561,0,0,0-1.43,7.452,28.679,28.679,0,0,0-.075,6.473,15.808,15.808,0,0,0,1.2,4.742,8.2,8.2,0,0,0,2.183,3.011,4.215,4.215,0,0,0,2.785,1.28,4.592,4.592,0,0,0,3.463-1.882A14.3,14.3,0,0,0,97.62,28v.151a8.581,8.581,0,0,0,2.032,4.065,4.366,4.366,0,0,0,3.237,1.43q3.312,0,5.645-3.764a19.5,19.5,0,0,0,1.957-4.366c.075.6.075,1.129.151,1.656a12.269,12.269,0,0,0,1.581,4.968,3.086,3.086,0,0,0,2.635,1.581,3.387,3.387,0,0,0,2.409-1.28,11.215,11.215,0,0,0,2.032-3.387,36.963,36.963,0,0,0,1.581-4.667,47.875,47.875,0,0,0,1.054-5.344.527.527,0,0,0-.3-.527m-31.69-.226q.376-3.463,1.054-6.925a45.54,45.54,0,0,1,1.505-6.1q.9-2.635,1.731-2.635t1.054,2.559a20.173,20.173,0,0,1-.753,5.42,53.369,53.369,0,0,1-4.817,12.119,41.326,41.326,0,0,1,.3-4.441m11.667,3.764a24.614,24.614,0,0,1,1.505-5.947q.979-2.484,2.258-2.484t.753.828a6.4,6.4,0,0,1,.151,2.258,13.849,13.849,0,0,1-.6,3.086,11.141,11.141,0,0,1-1.807,3.312,7.979,7.979,0,0,1-2.635,2.183,32.448,32.448,0,0,1,.376-3.312" transform="translate(-21.143 -0.074)" fill="#fff"/>
      <path id="Path_1619" data-name="Path 1619" d="M140.777,38.888a3.688,3.688,0,1,1-3.688-3.688,3.688,3.688,0,0,1,3.688,3.688" transform="translate(-32.986 -8.704)" fill="#07dd87"/>
    </g>
  </g>
</svg>
